<svg width="32" height="32" viewBox="0 0 32 32" fill="none" xmlns="http://www.w3.org/2000/svg">
<path d="M31.89 14.4752H29.1043C29.1624 14.9697 29.1925 15.4722 29.1925 15.9818C29.1925 23.2661 23.2657 29.1933 15.9818 29.1933C15.7037 29.1933 15.4303 29.181 15.1565 29.164H6.95827C9.52682 30.929 12.6346 31.9632 15.9818 31.9632C24.7937 31.9632 31.9624 24.7941 31.9624 15.9818C31.9624 15.4738 31.9375 14.9713 31.89 14.4752ZM2.76994 15.9818C2.76994 8.69754 8.69675 2.77072 15.9818 2.77072H24.965C22.4024 1.02315 19.3104 0 15.9818 0C7.16876 0 0 7.16915 0 15.9818C0 16.4906 0.0249285 16.9927 0.0720107 17.4884H2.85658C2.80159 16.9943 2.76994 16.4914 2.76994 15.9818ZM27.5086 15.9818C27.5086 15.4706 27.4722 14.9682 27.4081 14.4752H24.605C24.69 14.9646 24.7371 15.4683 24.7371 15.9818C24.7371 20.8103 20.8103 24.7375 15.9802 24.7375V24.7138H2.60337C3.26846 25.731 4.04788 26.6691 4.92226 27.5078H15.9802C22.3379 27.5078 27.5086 22.3375 27.5086 15.9818ZM4.4554 15.9818C4.4554 16.493 4.49022 16.9955 4.55431 17.4884H7.35866C7.27241 16.9986 7.22534 16.4958 7.22534 15.9818C7.22534 11.1537 11.1541 7.22651 15.9802 7.22651H15.9818V7.22177H29.3417C28.6782 6.21484 27.9063 5.28665 27.0402 4.45539H15.9802C9.62613 4.45539 4.4554 9.62612 4.4554 15.9818ZM22.8566 15.9818C22.8566 15.4643 22.7973 14.9602 22.6873 14.4752H19.799C19.983 14.942 20.0867 15.4497 20.0867 15.9818C20.0867 18.2445 18.2441 20.0863 15.9802 20.0863H0.534128C0.790903 21.0481 1.13354 21.9743 1.55491 22.8566H15.9802C19.7721 22.8566 22.8566 19.7725 22.8566 15.9818ZM9.10703 15.9818C9.10703 16.4993 9.1652 17.003 9.27519 17.4884H12.165C11.9794 17.022 11.877 16.514 11.877 15.9818C11.877 13.7187 13.7183 11.8774 15.9802 11.8774H31.4279C31.1715 10.9155 30.8289 9.98932 30.406 9.10743H15.9802C12.1899 9.10743 9.10703 12.1915 9.10703 15.9818Z" fill="#020A0F"/>
</svg>
