<svg width="1199" height="1199" viewBox="0 0 1199 1199" fill="none" xmlns="http://www.w3.org/2000/svg">
<path d="M1195.86 542.819H1091.4C1093.58 561.365 1094.71 580.208 1094.71 599.318C1094.71 872.478 872.45 1094.75 599.305 1094.75C588.874 1094.75 578.622 1094.29 568.355 1093.65H260.921C357.242 1159.84 473.785 1198.62 599.305 1198.62C929.75 1198.62 1198.58 929.778 1198.58 599.318C1198.58 580.268 1197.64 561.425 1195.86 542.819ZM103.859 599.318C103.859 326.158 326.114 103.902 599.305 103.902H936.174C840.076 38.368 724.127 0 599.305 0C268.815 0 -0.0136719 268.843 -0.0136719 599.318C-0.0136719 618.398 0.921148 637.226 2.68673 655.817H107.108C105.046 637.285 103.859 618.428 103.859 599.318ZM1031.56 599.318C1031.56 580.149 1030.2 561.306 1027.79 542.819H922.673C925.863 561.172 927.628 580.06 927.628 599.318C927.628 780.386 780.373 927.657 599.245 927.657V926.766H97.6128C122.553 964.912 151.782 1000.09 184.571 1031.54H599.245C837.658 1031.54 1031.56 837.656 1031.56 599.318ZM167.064 599.318C167.064 618.487 168.37 637.33 170.773 655.817H275.936C272.702 637.449 270.936 618.591 270.936 599.318C270.936 418.264 418.266 270.994 599.245 270.994H599.305V270.816H1100.3C1075.42 233.057 1046.47 198.249 1013.99 167.077H599.245C360.966 167.077 167.064 360.98 167.064 599.318ZM857.109 599.318C857.109 579.911 854.883 561.009 850.759 542.819H742.45C749.349 560.327 753.236 579.363 753.236 599.318C753.236 684.17 684.141 753.235 599.245 753.235H20.0161C29.6452 789.303 42.4941 824.036 58.2953 857.122H599.245C741.441 857.122 857.109 741.469 857.109 599.318ZM341.5 599.318C341.5 618.725 343.681 637.612 347.806 655.817H456.174C449.215 638.324 445.373 619.274 445.373 599.318C445.373 514.451 514.423 445.401 599.245 445.401H1178.53C1168.92 409.333 1156.07 374.6 1140.21 341.528H599.245C457.109 341.528 341.5 457.181 341.5 599.318Z" fill="#020A0F"/>
</svg>
